HIERARCHY
ROOT Hips
{
     OFFSET 49.30740 93.51020 89.29440
     CHANNELS 6 Xposition Yposition Zposition Zrotation Xrotation Yrotation
     JOINT Spine
     {
          OFFSET 0.00000 11.89050 -0.00000
          CHANNELS 3 Zrotation Xrotation Yrotation
          JOINT Spine1
          {
               OFFSET 0.00000 25.65740 0.12766
               CHANNELS 3 Zrotation Xrotation Yrotation
               JOINT HEad
               {
                    OFFSET 0.00000 8.73416 0.01134
                    CHANNELS 3 Zrotation Xrotation Yrotation
                    End Site
                    {
                         OFFSET -0.29000 12.77420 2.51395
                    }
               }
               JOINT LeftShoulder1
               {
                    OFFSET 8.99000 -0.36225 -0.22000
                    CHANNELS 3 Zrotation Xrotation Yrotation
                    JOINT LeftArm
                    {
                         OFFSET 10.28270 -0.00338 0.32212
                         CHANNELS 3 Zrotation Xrotation Yrotation
                         JOINT LeftForeArm
                         {
                              OFFSET 32.76690 0.09914 -1.42434
                              CHANNELS 3 Zrotation Xrotation Yrotation
                              JOINT LeftHand
                              {
                                   OFFSET 27.56430 0.08536 1.02216
                                   CHANNELS 3 Zrotation Xrotation Yrotation
                                   End Site
                                   {
                                        OFFSET 16.74430 -0.60000 1.50291
                                   }
                              }
                         }
                    }
               }
               JOINT RightShoulder
               {
                    OFFSET -8.99000 -0.36225 -0.22000
                    CHANNELS 3 Zrotation Xrotation Yrotation
                    JOINT RightArm
                    {
                         OFFSET -10.28270 -0.00338 0.32212
                         CHANNELS 3 Zrotation Xrotation Yrotation
                         JOINT RightForeArm
                         {
                              OFFSET -32.89710 0.09914 -1.42434
                              CHANNELS 3 Zrotation Xrotation Yrotation
                              JOINT RightHand
                              {
                                   OFFSET -27.49210 0.08536 1.02216
                                   CHANNELS 3 Zrotation Xrotation Yrotation
                                   End Site
                                   {
                                        OFFSET -16.63120 -0.60000 1.50291
                                   }
                              }
                         }
                    }
               }
          }
     }
     JOINT LeftUpLeg
     {
          OFFSET 8.94580 -8.66707 0.10165
          CHANNELS 3 Zrotation Xrotation Yrotation
          JOINT LeftLeg
          {
               OFFSET 0.00000 -44.42270 1.37270
               CHANNELS 3 Zrotation Xrotation Yrotation
               JOINT LeftFoot
               {
                    OFFSET -0.25355 -42.09240 -1.46059
                    CHANNELS 3 Zrotation Xrotation Yrotation
                    JOINT LeftToes
                    {
                         OFFSET -0.04000 -4.41509 8.49910
                         CHANNELS 3 Zrotation Xrotation Yrotation
                         End Site
                         {
                              OFFSET 0.08000 -0.04745 9.77979
                         }
                    }
               }
          }
     }
     JOINT RightUpLeg
     {
          OFFSET -8.94580 -8.66707 0.10165
          CHANNELS 3 Zrotation Xrotation Yrotation
          JOINT RightLeg
          {
               OFFSET -0.00000 -44.42270 1.37270
               CHANNELS 3 Zrotation Xrotation Yrotation
               JOINT RightFoot
               {
                    OFFSET 0.25355 -42.09240 -1.46059
                    CHANNELS 3 Zrotation Xrotation Yrotation
                    JOINT RightToes
                    {
                         OFFSET 0.04000 -4.41509 8.49910
                         CHANNELS 3 Zrotation Xrotation Yrotation
                         End Site
                         {
                              OFFSET -0.08000 -0.13745 9.77979
                         }
                    }
               }
          }
     }
}
MOTION
Frames: 19
Frame Time: 0.01667
49.30740 93.51020 89.29440 -1.15418 22.28130 -172.03700 -13.88560 17.57380 3.83150 -5.97777 35.03320 1.64767 -6.04766 -6.72708 10.47560 -0.00000 0.00000 -0.00000 -141.35400 -66.73510 -109.99500 -107.08800 54.91020 -33.57070 10.85750 8.49096 -11.64100 9.10990 0.36453 0.02837 88.16810 3.59911 78.85650 172.97600 -29.95050 71.59090 -24.24230 9.83840 -4.01938 36.42400 -8.33769 -8.79651 -39.69340 33.45760 75.81650 -7.51072 21.04480 1.73407 6.80608 -17.68190 -68.03080 -35.90710 16.48430 29.60690 39.17790 3.18514 -29.23360 -25.40320 10.27700 3.97691 3.19842 -41.49150 -1.45727 
47.23480 93.82590 89.36650 0.29025 21.22490 -175.64200 -13.24450 17.22250 3.53760 -5.66687 34.45720 1.14982 -6.80532 -7.06413 11.44510 -0.00000 0.00000 -0.00000 -133.26700 -67.75090 -105.22800 -101.32600 58.36500 -42.25170 9.90043 8.72466 -10.40080 9.19984 0.23446 -1.02887 86.69850 4.20277 78.37310 173.77200 -29.94420 70.95400 -24.87700 9.86637 -4.16027 37.00960 -6.48507 -13.77180 -38.66960 28.65730 76.03670 -8.21618 19.77620 1.82709 6.64542 -17.88470 -66.31680 -36.10620 14.30900 29.54200 37.61270 2.50693 -26.04170 -23.53600 11.75070 3.98572 2.81540 -37.99810 -1.97669 
44.97190 94.12560 89.33380 1.83331 19.85900 -179.56300 -12.32830 16.75760 3.13514 -5.50288 33.67600 0.85096 -7.66216 -7.71515 12.85470 -0.00000 0.00000 -0.00000 -129.45000 -68.82640 -105.28000 -94.45830 61.11070 -50.90350 9.45001 8.84117 -9.63425 9.24069 0.13777 -1.80613 85.04600 4.98375 78.16400 174.51900 -29.62070 70.20620 -25.19270 9.90118 -4.32543 37.47730 -4.17688 -18.67970 -36.95140 23.41180 75.58330 -8.96264 18.27280 1.89713 6.95446 -16.71650 -63.63110 -36.14570 11.82150 28.85180 35.99550 1.83275 -22.84310 -21.45370 13.57500 3.97509 2.52678 -34.14500 -2.08444 
42.52980 94.34340 89.20770 3.24371 18.23260 176.39400 -11.32190 16.20830 2.60542 -5.48636 32.73470 0.61658 -8.58018 -8.69260 14.77140 -0.00000 0.00000 -0.00000 -134.92300 -70.20940 -114.72100 -90.35340 62.26000 -54.89380 9.75487 8.73931 -10.45170 9.20211 0.09942 -2.11440 83.61800 5.76881 78.23530 175.00800 -29.32400 69.36030 -25.06660 9.93612 -4.48996 37.76130 -1.56526 -23.17430 -34.94470 18.05760 74.79800 -9.72393 16.63110 1.94019 7.53604 -14.27800 -59.84300 -36.18580 9.05587 27.57120 34.46960 1.21131 -20.07240 -19.19110 15.62460 3.90173 2.29714 -30.01230 -1.73100 
39.88370 94.35790 89.01980 4.39822 16.49290 172.45599 -10.44930 15.63480 1.98448 -5.57694 31.75190 0.26991 -9.44180 -9.92370 17.16450 -0.00000 0.00000 -0.00000 -151.19400 -70.17180 -134.89101 -90.87350 61.69460 -51.57450 10.98230 8.33570 -13.16070 9.05371 0.12887 -1.87858 82.49640 6.50842 78.54750 175.11400 -29.01630 68.49370 -24.54760 9.97389 -4.67558 37.27910 -0.23378 -26.61290 -33.53960 15.91640 74.06270 -11.93440 14.27910 2.17975 7.94601 -11.41900 -55.06760 -36.39720 6.12926 25.91260 33.28540 0.60886 -18.23970 -16.99580 17.75230 3.77685 2.05335 -25.69340 -1.16035 
37.36950 94.21820 88.87900 5.25500 14.87890 168.85201 -9.84198 15.11410 1.32851 -5.63579 30.87550 -0.30887 -10.08050 -11.20330 19.86420 -0.00000 0.00000 -0.00000 -168.03799 -66.76410 -155.86700 -92.68440 59.40590 -43.53860 12.88410 7.63930 -16.88380 8.84229 0.21915 -1.13516 81.68000 7.07044 79.02070 174.96001 -28.71820 67.77180 -23.79440 10.02100 -4.92203 36.47190 1.06901 -29.28310 -32.18230 14.38350 73.25660 -14.17500 12.17180 2.36425 7.85926 -9.49090 -50.04490 -36.69060 3.31549 24.13640 32.69890 -0.01777 -17.83230 -15.51310 19.74880 3.72759 1.73924 -21.09310 -0.82307 
35.02910 93.94680 88.82280 5.97825 13.61150 165.77400 -9.34783 14.71390 0.64939 -5.53004 30.22160 -1.12678 -10.38940 -12.26310 22.59380 -0.00000 0.00000 -0.00000 -175.35500 -62.21580 -168.09801 -90.05700 55.78690 -35.95380 14.80220 6.86701 -20.11000 8.67553 0.34993 -0.03496 81.13410 7.29035 79.51210 174.83800 -28.52490 67.39850 -23.06080 10.08100 -5.25096 35.56320 2.39418 -30.97810 -31.01130 13.42930 72.61260 -16.09340 10.17150 2.43177 7.35934 -9.68487 -46.14030 -36.98150 0.98162 22.44270 32.80220 -0.58846 -18.85640 -14.94610 21.30730 3.80540 1.36249 -15.89440 -1.12032 
32.83360 93.63590 88.87230 6.69925 12.81450 163.32100 -8.90742 14.48150 0.00115 -5.17634 29.86490 -2.12937 -10.44930 -12.92780 25.07000 -0.00000 0.00000 -0.00000 -152.25999 -71.26500 -154.61099 -61.79410 45.35670 -50.60430 16.10050 6.63333 -19.75230 8.59293 0.49143 1.16423 80.84820 7.15209 79.88230 174.98000 -28.52850 67.48910 -22.55800 10.15070 -5.64008 34.67310 3.81806 -31.38190 -29.99850 12.93460 72.23280 -17.24390 8.18368 2.32704 6.72214 -12.26180 -44.49020 -37.19140 -0.63034 20.87240 33.48600 -0.85296 -20.77860 -15.10720 22.23970 3.97721 1.03515 -10.36750 -2.04147 
30.74520 93.39250 89.04520 7.49367 12.48620 161.50200 -8.44575 14.44290 -0.60461 -4.56559 29.83500 -3.28309 -10.49770 -13.24740 27.11030 -0.00000 0.00000 -0.00000 -34.11480 -61.14130 -53.07750 -26.65080 -3.33274 -65.62210 7.80135 8.71010 -14.94380 8.53774 0.61182 2.19128 80.80170 6.86528 80.07670 175.42000 -28.72810 67.99660 -22.32770 10.22380 -6.04380 33.89680 5.34320 -30.24350 -29.01830 12.71550 71.90100 -17.29410 6.34304 2.06804 6.03130 -16.37250 -45.10980 -37.23670 -1.49144 19.43900 34.56080 -0.53897 -22.79030 -15.64710 22.70820 4.18818 0.88002 -5.95678 -3.16552 
28.75290 93.29100 89.34240 8.32575 12.50780 160.23199 -7.91788 14.58230 -1.19372 -3.78773 30.08670 -4.57305 -10.72200 -13.47570 28.70730 -0.00000 0.00000 -0.00000 -6.98379 -29.80990 -43.35970 8.64884 -57.10600 -35.06010 -10.27170 11.43000 -11.79710 8.44788 0.69267 2.90395 80.89880 6.69654 80.09710 176.09200 -29.03380 68.77930 -22.26670 10.30050 -6.45858 33.27930 6.88820 -27.63670 -28.00000 12.53360 71.30160 -16.18850 4.88906 1.73458 5.24519 -20.72370 -47.11340 -37.12930 -1.76942 18.26330 35.88020 0.38781 -24.24930 -16.25830 23.18040 4.42402 0.88640 -4.29102 -3.98117 
26.88580 93.34900 89.72320 9.14911 12.62560 159.28999 -7.10551 14.85020 -1.80465 -2.95555 30.49210 -5.93243 -11.15540 -13.89710 29.99690 -0.00000 0.00000 -0.00000 6.13095 -12.73630 -44.74140 -37.24750 -81.20090 -59.24270 -24.93510 12.46630 -7.15434 8.25478 0.73432 3.33141 81.04430 6.77226 79.91040 176.92999 -29.34140 69.68430 -22.27700 10.38640 -6.91622 32.84400 8.26012 -24.21740 -27.03920 12.25140 70.49700 -14.31230 3.95571 1.41569 4.41100 -24.40590 -49.52460 -36.86450 -1.75240 17.51250 37.35370 1.65070 -24.95450 -16.69840 24.08270 4.68432 0.96766 -5.92491 -4.13591 
25.14790 93.54830 90.10360 9.79749 12.64380 158.45599 -6.19304 15.11330 -2.39740 -2.19510 30.84860 -7.18202 -11.81300 -14.62410 31.07880 -0.00000 0.00000 -0.00000 12.06000 -8.23536 -46.50930 -43.54720 -88.56770 -49.58940 -36.54900 10.75140 1.73209 7.86235 0.74680 3.59976 81.24000 7.02329 79.40950 177.83200 -29.59130 70.55520 -22.36460 10.47940 -7.39985 32.40980 9.27833 -21.06630 -26.34060 11.79320 69.91480 -12.27010 3.47842 1.15848 3.65153 -27.10570 -51.67900 -36.58580 -1.67740 17.26890 38.87770 2.88649 -25.05970 -16.65860 25.46800 4.88767 1.11043 -10.18550 -3.61979 
23.54530 93.83100 90.36730 10.21480 12.40400 157.47600 -5.29598 15.27040 -2.84309 -1.59664 31.00230 -8.01067 -12.75450 -15.52480 31.88620 -0.00000 0.00000 -0.00000 12.62460 -8.17924 -47.46200 77.07590 -88.71930 76.51820 -40.45630 8.75304 7.39145 7.27055 0.74502 3.84552 81.51490 7.22114 78.44370 178.66701 -29.76780 71.23600 -22.59760 10.56430 -7.81310 31.89310 9.84239 -19.13130 -26.08710 11.21510 70.06090 -10.70080 3.22382 0.98266 3.09428 -28.80040 -53.19430 -36.30530 -1.71064 17.43350 40.30150 3.89601 -24.82470 -15.93840 26.94040 4.89492 1.35256 -15.61690 -2.70606 
22.14950 94.05190 90.43750 10.32260 11.95160 156.19800 -4.84184 15.26360 -2.91288 -1.33380 30.90930 -8.07875 -13.91770 -16.31060 32.26120 -0.00000 0.00000 -0.00000 7.92427 -12.03600 -47.40370 -54.88910 -89.90550 -58.50710 -37.84510 9.61650 5.11984 6.69623 0.74879 4.16128 81.81160 7.06170 76.88660 179.39900 -29.88230 71.63010 -22.97490 10.62620 -8.07239 31.17120 9.94945 -18.52140 -26.30000 10.91200 70.94920 -10.11020 2.84428 0.89520 2.84408 -29.49020 -53.88790 -35.89390 -2.67479 17.53410 41.65480 6.41274 -24.89160 -14.29870 27.03770 4.40467 1.68452 -20.77480 -1.57152 
20.90650 94.26420 90.31010 10.26940 11.38230 154.63800 -4.64646 15.15370 -2.57681 -1.49553 30.65990 -7.24503 -14.99840 -16.67250 32.11760 -0.00000 0.00000 -0.00000 1.25173 -15.96520 -46.60290 -111.68800 -84.90190 -124.55200 -32.18490 11.35940 -0.72795 6.47258 0.77690 4.55763 81.99710 6.29792 74.70650 -179.79700 -30.00410 71.80580 -23.34650 10.66940 -8.22889 30.30720 9.99449 -18.74580 -26.68890 10.59340 72.13110 -10.28660 2.17411 0.85562 2.94272 -29.18330 -53.77200 -35.55000 -3.22793 17.83570 42.61730 7.99367 -25.05430 -12.79480 26.44220 3.87125 2.07129 -24.89100 -0.21942 
19.80070 94.51180 90.07310 10.15470 10.84980 153.03900 -4.59284 15.00830 -1.94185 -2.04400 30.36020 -5.71676 -15.59980 -16.43350 31.50400 -0.00000 0.00000 -0.00000 -5.74401 -19.94670 -45.28570 -90.35560 -78.85410 -116.77000 -26.88900 12.29440 -5.60948 6.76933 0.83319 4.94179 81.98170 4.88501 72.01880 -178.59599 -30.27190 72.05180 -23.50220 10.71850 -8.44885 29.33910 10.21750 -19.11950 -26.91110 10.11760 73.05140 -10.86150 1.24760 0.82339 3.32044 -28.02900 -53.08190 -35.26290 -3.00258 18.23820 43.02730 8.40744 -25.29860 -11.80790 25.15450 3.43059 2.45634 -27.73140 1.18078 
18.86460 94.78090 89.85710 10.03440 10.44610 151.72301 -4.66468 14.87080 -1.18239 -2.77469 30.07560 -3.93159 -15.54060 -15.70860 30.52510 -0.00000 0.00000 -0.00000 -14.94140 -29.91040 -44.24960 -12.90790 -71.66110 -54.51040 -19.55380 12.21880 -8.86425 7.42920 0.89309 5.13090 81.80300 3.05595 69.08100 -176.82600 -30.76700 72.70510 -23.37340 10.79510 -8.86179 28.36560 10.52290 -19.19320 -26.81130 9.66587 73.40370 -11.59460 0.27835 0.78887 3.82562 -26.36740 -52.17580 -35.00160 -1.92623 18.58740 42.89790 7.82684 -25.45780 -11.37430 23.21980 3.09759 2.72554 -29.15240 2.24984 
18.11630 95.05020 89.75890 9.91258 10.15240 150.90199 -4.82192 14.76140 -0.45885 -3.44016 29.83710 -2.29246 -15.01010 -14.85950 29.26470 -0.00000 0.00000 -0.00000 -31.81950 -52.43340 -48.15870 -32.29250 -27.87300 -66.27260 -5.25906 10.74570 -12.09890 8.10248 0.91592 4.97087 81.58040 1.21082 66.20760 -174.78600 -31.36010 73.81100 -23.10420 10.89640 -9.43841 27.50720 10.70450 -18.84760 -26.43170 9.39126 73.14670 -12.34710 -0.49417 0.76306 4.32502 -24.57820 -51.33220 -34.72910 -0.16595 18.79300 42.34870 6.49444 -25.25510 -11.36240 20.83390 2.83965 2.78455 -29.15240 2.72991 
17.56660 95.27810 89.81640 9.74088 9.90591 150.60100 -5.05724 14.67620 0.14300 -3.90930 29.64190 -1.01908 -14.37100 -14.21070 27.84220 -0.00000 0.00000 -0.00000 -123.79900 -76.55900 -125.44600 -55.24890 25.33980 -49.91700 9.09528 8.45451 -15.44790 8.51414 0.88626 4.51318 81.41310 -0.34162 63.65650 -173.14700 -31.80810 75.01460 -22.87560 10.99460 -10.00260 26.80820 10.57680 -18.16300 -25.90340 9.42586 72.39070 -13.11920 -0.99434 0.75768 4.76152 -22.89000 -50.65840 -34.40980 1.87939 18.84590 41.56090 4.85171 -24.52110 -11.58360 18.23540 2.61393 2.66771 -28.18030 2.66436 
